# xmcd
#
# Track frame offsets:
#	150
#	11497
#	23270
#	37932
#	47010
#	62715
#	76710
#	88497
#	101510
#	118207
#	127562
#	142370
#
# Disc length: 2314 seconds
#
# Revision: 0
# Processed by: cddbd v1.5.2PL0 Copyright (c) Steve Scherf et al.
# Submitted via: EasyCDDAExtractor 15.3.0.1
#
DISCID=9009080c
DTITLE=Irma Thomas - It's Raining
DYEAR=1996
DGENRE=Soul
TTITLE0=I Did My Part
TTITLE1=Look Up (Whenever)
TTITLE2=I Done Got Over
TTITLE3=Girl Needs Boy
TTITLE4=You Can Have My Husband
TTITLE5=Cry On
TTITLE6=I won't Cry
TTITLE7=Ruler of My Heart
TTITLE8=I Done Got Over (Live)
TTITLE9=It's Raining
TTITLE10=Hip Shakin' Mama
TTITLE11=Wish Someone Would Care
EXTD=
EXTT0=
EXTT1=
EXTT2=
EXTT3=
EXTT4=
EXTT5=
EXTT6=
EXTT7=
EXTT8=
EXTT9=
EXTT10=
EXTT11=
PLAYORDER=
